# xmcd
#
# Track frame offsets: 
#        150
#        17262
#        27182
#        40538
#        51866
#        61526
#        72201
#        83865
#        94925
#        105107
#        117541
#        136994
#        149652
#        162507
#        172655
#        185318
#        197594
#        210716
#        223130
#        234374
#
# Disc length: 3235 seconds
#
# Revision: 1
# Processed by: cddbd v1.5.2PL0 Copyright (c) Steve Scherf et al.
# Submitted via: ExactAudioCopy v0.99pb4
#
DISCID=080ca114
DTITLE=Various Artist - Best Of The Swinging 60's 
DYEAR=2006
DGENRE=Oldies
TTITLE0=The Troggs/Wild Things
TTITLE1=Ben E. King& The Drifters/Save The Last Dance For Me
TTITLE2=Eddie Floyd/Knock On Wood
TTITLE3=The Equals/Baby Come Back
TTITLE4=Chris Montez/Let's Dance
TTITLE5=Chubby Checker/Let's Twist Again
TTITLE6=Chris Andrews/Pretty Belinda
TTITLE7=The Searchers/Sweets For My Sweet
TTITLE8=The Crystals/Da Doo Ron Ron
TTITLE9=Herman's Hermits/No Milk Today
TTITLE10=Trini Lopez/La Bamba
TTITLE11=The Bee Gees/Spicks and Specks
TTITLE12=Ben E. King and The Drifters/Stand By Me
TTITLE13=The Crystals/ He's A Rebel
TTITLE14=The Archies/Sugar Sugar
TTITLE15=Chrispian St. Peters/You Were On My Mind
TTITLE16=Sam and Dave/Soul Man
TTITLE17=Trini Lopez/Lemon Tree
TTITLE18=Johnny Tillotson/Poetry In Motion
TTITLE19=The Box Tops/The Letter
EXTD=
EXTT0=
EXTT1=
EXTT2=
EXTT3=
EXTT4=
EXTT5=
EXTT6=
EXTT7=
EXTT8=
EXTT9=
EXTT10=
EXTT11=
EXTT12=
EXTT13=
EXTT14=
EXTT15=
EXTT16=
EXTT17=
EXTT18=
EXTT19=
PLAYORDER=
